<svg width="26" height="26" viewBox="0 0 26 26" fill="none" xmlns="http://www.w3.org/2000/svg">
<path fill-rule="evenodd" clip-rule="evenodd" d="M13 4.33337C13.5983 4.33337 14.0833 4.8184 14.0833 5.41671V20.5834C14.0833 21.1817 13.5983 21.6667 13 21.6667C12.4017 21.6667 11.9167 21.1817 11.9167 20.5834V5.41671C11.9167 4.8184 12.4017 4.33337 13 4.33337ZM18.4167 8.66671C19.015 8.66671 19.5 9.15173 19.5 9.75004V20.5834C19.5 21.1817 19.015 21.6667 18.4167 21.6667C17.8184 21.6667 17.3333 21.1817 17.3333 20.5834V9.75004C17.3333 9.15173 17.8184 8.66671 18.4167 8.66671ZM7.58333 13C8.18164 13 8.66667 13.4851 8.66667 14.0834V20.5834C8.66667 21.1817 8.18164 21.6667 7.58333 21.6667C6.98502 21.6667 6.5 21.1817 6.5 20.5834V14.0834C6.5 13.4851 6.98502 13 7.58333 13Z" fill="white"/>
</svg>
