<svg width="30" height="23" viewBox="0 0 30 23" fill="none" xmlns="http://www.w3.org/2000/svg">
<path d="M19.4032 15.6652C19.4483 15.7839 19.4646 15.8862 19.4646 15.9763C19.4646 16.492 18.9693 16.8481 18.515 16.8481C18.1834 16.8481 17.8355 16.6558 17.7004 16.2423L17.0087 14.2325H12.7926L12.1008 16.2587C11.9657 16.6721 11.6178 16.8481 11.3026 16.8481C10.881 16.8481 10.4144 16.5371 10.4144 16.0336C10.4144 15.9312 10.4307 15.8248 10.4758 15.7102L13.6399 7.07745C13.82 6.59035 14.2252 6.18921 14.6796 6.18921H15.1462C15.6579 6.18921 16.0345 6.55761 16.2309 7.07745L19.4073 15.6652H19.4032ZM16.5134 12.7958C15.2936 9.21825 14.962 8.17036 14.872 7.4172C14.7983 8.14171 14.5118 9.18959 13.292 12.7958H16.5134Z" fill="#53B3EE"/>
<path d="M20.4347 7.13879C20.4347 6.57801 20.9013 6.13184 21.458 6.13184C22.0147 6.13184 22.465 6.59029 22.465 7.13879C22.465 7.68729 22.0147 8.12936 21.458 8.12936C20.9013 8.12936 20.4347 7.68729 20.4347 7.13879ZM20.5861 9.85673C20.5861 9.29595 21.0241 9.01351 21.458 9.01351C21.8919 9.01351 22.3176 9.29595 22.3176 9.85673V15.9926C22.3176 16.5534 21.8796 16.8481 21.458 16.8481C21.0364 16.8481 20.5861 16.5534 20.5861 15.9926V9.85673Z" fill="#53B3EE"/>
<path d="M26.3577 22.4272H7.59409C5.84216 22.4272 4.4177 20.9781 4.4177 19.1975V7.82638L0.877001 3.04541C0.447205 2.46416 0.381713 1.70281 0.696896 1.05198C1.01208 0.401143 1.65882 0 2.37105 0H26.3577C28.1097 0 29.5341 1.44903 29.5341 3.22961V19.1934C29.5341 20.974 28.1097 22.4231 26.3577 22.4231V22.4272ZM3.04235 2.24312L6.61989 7.0773V19.1934C6.61989 19.7379 7.05787 20.184 7.59409 20.184H26.3577C26.894 20.184 27.332 19.742 27.332 19.1934V3.22961C27.332 2.6852 26.894 2.23903 26.3577 2.23903H3.04235V2.24312Z" fill="#53B3EE"/>
</svg>
