<svg width="30" height="23" viewBox="0 0 30 23" fill="none" xmlns="http://www.w3.org/2000/svg">
<g clip-path="url(#clip0_199_741)">
<path d="M26.7141 23H7.3287C5.51872 23 4.04706 21.514 4.04706 19.6879V8.02628L0.389035 3.1232C-0.0550017 2.5271 -0.122665 1.7463 0.202963 1.07885C0.52859 0.411389 1.19676 0 1.93259 0H26.7141C28.5241 0 29.9957 1.48604 29.9957 3.3121V19.6837C29.9957 21.5098 28.5241 22.9958 26.7141 22.9958V23Z" fill="#53B3EE"/>
<path d="M19.5292 16.0651C19.5757 16.1868 19.5926 16.2917 19.5926 16.3841C19.5926 16.913 19.0809 17.2782 18.6115 17.2782C18.269 17.2782 17.9095 17.0809 17.77 16.657L17.0553 14.5958H12.6995L11.9848 16.6737C11.8452 17.0977 11.4858 17.2782 11.1601 17.2782C10.7246 17.2782 10.2425 16.9592 10.2425 16.4429C10.2425 16.3379 10.2594 16.2288 10.3059 16.1112L13.5749 7.25798C13.7609 6.75844 14.1796 6.34705 14.649 6.34705H15.1311C15.6597 6.34705 16.0488 6.72485 16.2518 7.25798L19.5334 16.0651H19.5292ZM16.5436 13.1224C15.2833 9.45345 14.9408 8.3788 14.8478 7.6064C14.7716 8.34942 14.4756 9.42407 13.2154 13.1224H16.5436Z" fill="white"/>
<path d="M20.5949 7.321C20.5949 6.7459 21.077 6.28833 21.6521 6.28833C22.2272 6.28833 22.6924 6.75849 22.6924 7.321C22.6924 7.88351 22.2272 8.33688 21.6521 8.33688C21.077 8.33688 20.5949 7.88351 20.5949 7.321V7.321ZM20.7513 10.1084C20.7513 9.53327 21.2038 9.24361 21.6521 9.24361C22.1004 9.24361 22.5402 9.53327 22.5402 10.1084V16.4009C22.5402 16.976 22.0877 17.2783 21.6521 17.2783C21.2165 17.2783 20.7513 16.976 20.7513 16.4009V10.1084V10.1084Z" fill="white"/>
</g>
<defs>
<clipPath id="clip0_199_741">
<rect width="30" height="23" fill="white"/>
</clipPath>
</defs>
</svg>
