<svg width="23" height="23" viewBox="0 0 23 23" fill="none" xmlns="http://www.w3.org/2000/svg">
<g clip-path="url(#clip0_199_170)">
<path d="M0.986964 23.0001C0.730356 23.0001 0.485591 22.9033 0.300043 22.729C0.0987043 22.5393 -0.0118347 22.2759 8.72585e-06 22.0009L0.205295 15.9014C0.213191 15.6613 0.311887 15.429 0.485591 15.2586L15.3728 0.290561C15.5584 0.108544 15.8071 0.000107748 16.0676 0.000107748C16.3321 -0.00376496 16.5809 0.0969254 16.7703 0.27507L22.7039 5.95633C23.0948 6.32811 23.1027 6.94387 22.7197 7.32727L7.82854 22.2914C7.65878 22.4618 7.43375 22.5664 7.18899 22.5819L1.05408 23.0001C1.03039 23.0001 1.0067 23.0001 0.986964 23.0001Z" fill="#53B3EE"/>
<path d="M12.9238 2.75772L11.5452 4.14355L18.8913 11.1759L20.2699 9.79009L12.9238 2.75772Z" fill="white"/>
</g>
<defs>
<clipPath id="clip0_199_170">
<rect width="23" height="23" fill="white"/>
</clipPath>
</defs>
</svg>
