<svg width="23" height="23" viewBox="0 0 23 23" fill="none" xmlns="http://www.w3.org/2000/svg">
<path d="M16.6555 0.516925C16.474 0.343988 16.2345 0.25 15.9797 0.25H15.9681C15.7132 0.25 15.466 0.355266 15.2884 0.531963L12.2182 3.59596L0.725405 15.0587C0.555484 15.2279 0.458941 15.4497 0.451218 15.6828L0.2504 21.604C0.242677 21.8709 0.346944 22.1266 0.543898 22.3108C0.725404 22.48 0.964835 22.5739 1.21585 22.5739C1.23903 22.5739 1.2622 22.5739 1.28151 22.5739L7.28281 22.1679C7.51838 22.1529 7.74237 22.0514 7.90843 21.886L22.4753 7.35922C22.846 6.98703 22.8422 6.39303 22.4598 6.02836L16.6555 0.513165V0.516925ZM6.78463 20.3182L2.21608 20.6265L2.36669 16.1114L12.925 5.58098L17.3468 9.78411L6.78463 20.3182V20.3182ZM18.6945 8.4382L14.2727 4.23508L15.9951 2.51698L20.4169 6.72011L18.6945 8.4382Z" fill="#53B3EE"/>
</svg>
