<svg width="23" height="26" viewBox="0 0 23 26" fill="none" xmlns="http://www.w3.org/2000/svg">
<g clip-path="url(#clip0_199_781)">
<path d="M19.3351 1.70846H16.3881C15.9653 0.705213 14.9616 0 13.7913 0H8.58058C7.41031 0 6.40661 0.705213 5.98377 1.70846H3.16486C1.418 1.70846 0 3.1021 0 4.81896V22.4577C0 24.1703 1.418 25.5682 3.16486 25.5682H19.3351C21.0777 25.5682 22.5 24.1745 22.5 22.4577V4.81896C22.5 3.1063 21.082 1.70846 19.3351 1.70846ZM8.58058 2.11144H13.7913C14.1586 2.11144 14.4533 2.40528 14.4533 2.76209C14.4533 3.11889 14.1543 3.41273 13.7913 3.41273H8.58058C8.21327 3.41273 7.91857 3.11889 7.91857 2.76209C7.91857 2.40528 8.21754 2.11144 8.58058 2.11144Z" fill="#53B3EE"/>
<path d="M15.5296 10.5194L10.289 15.4349L7.76051 13.2521C7.31632 12.8659 6.63721 12.9121 6.24428 13.3487C5.85134 13.7852 5.89832 14.4527 6.34251 14.8389L9.60561 17.6639C9.81062 17.8402 10.0626 17.9284 10.3146 17.9284C10.5837 17.9284 10.8485 17.8318 11.0578 17.6345L17.0074 12.0516C17.4345 11.6486 17.4516 10.9812 17.0415 10.5614C16.6315 10.1416 15.9524 10.1248 15.5253 10.5278L15.5296 10.5194Z" fill="white"/>
</g>
<defs>
<clipPath id="clip0_199_781">
<rect width="22.5" height="25.5682" fill="white"/>
</clipPath>
</defs>
</svg>
