<svg width="23" height="26" viewBox="0 0 23 26" fill="none" xmlns="http://www.w3.org/2000/svg">
<path d="M19.7508 2.19194H16.8044C16.3816 1.19839 15.3781 0.5 14.208 0.5H8.99832C7.82827 0.5 6.82476 1.19839 6.40201 2.19194H3.57936C1.8371 2.19194 0.4151 3.5721 0.4151 5.27236V22.7405C0.4151 24.4366 1.83283 25.8209 3.57936 25.8209H19.7508C21.4931 25.8209 22.9151 24.4408 22.9151 22.7405V5.27236C22.9151 3.57626 21.4974 2.19194 19.7508 2.19194V2.19194ZM8.99832 2.59102H14.208C14.5753 2.59102 14.8699 2.88202 14.8699 3.23538C14.8699 3.58873 14.571 3.87973 14.208 3.87973H8.99832C8.63108 3.87973 8.33643 3.58873 8.33643 3.23538C8.33643 2.88202 8.63535 2.59102 8.99832 2.59102V2.59102ZM20.7672 22.7447C20.7672 23.2893 20.3102 23.7341 19.7508 23.7341H3.57936C3.01996 23.7341 2.56304 23.2893 2.56304 22.7447V5.27236C2.56304 4.72778 3.01996 4.28297 3.57936 4.28297H6.40201C6.82476 5.27652 7.82827 5.97491 8.99832 5.97491H14.208C15.3781 5.97491 16.3816 5.27652 16.8044 4.28297H19.7508C20.3102 4.28297 20.7672 4.72778 20.7672 5.27236V22.7405V22.7447Z" fill="#53B3EE"/>
<path d="M15.9417 10.9177L10.7021 15.7857L8.17414 13.624C7.73003 13.2416 7.05106 13.2873 6.65819 13.7196C6.26533 14.152 6.31231 14.8129 6.75642 15.1954L10.0189 17.9931C10.2239 18.1677 10.4758 18.255 10.7277 18.255C10.9968 18.255 11.2615 18.1594 11.4708 17.964L17.4192 12.4351C17.8463 12.036 17.8634 11.375 17.4534 10.9593C17.0435 10.5436 16.3645 10.527 15.9375 10.926L15.9417 10.9177Z" fill="#53B3EE"/>
</svg>
