<svg width="23" height="23" viewBox="0 0 23 23" fill="none" xmlns="http://www.w3.org/2000/svg">
<path d="M20.9934 7.90443L20.2373 7.67766L20.6077 6.99735C21.1232 6.04937 20.9476 4.90437 20.1685 4.14971L18.7441 2.76306C17.9651 2.00468 16.789 1.83367 15.819 2.33554L15.1202 2.69615L14.8872 1.96007C14.5626 0.937746 13.6079 0.25 12.5081 0.25H10.4918C9.39205 0.25 8.43356 0.937746 8.11278 1.96007L7.87983 2.69615L7.18101 2.33554C6.21105 1.83367 5.03106 2.00468 4.25585 2.76306L2.83146 4.14971C2.05244 4.90809 1.87678 6.05309 2.39231 6.99735L2.76272 7.67766L2.00661 7.90443C0.956457 8.22042 0.25 9.14981 0.25 10.2205V12.1833C0.25 13.254 0.956457 14.1871 2.00661 14.4994L2.76272 14.7261L2.39231 15.4064C1.87678 16.3544 2.05244 17.4994 2.83146 18.2541L4.25585 19.6407C5.03488 20.3991 6.21105 20.5701 7.18101 20.0682L7.87983 19.7076L8.11278 20.4437C8.43737 21.466 9.39205 22.1538 10.4918 22.1538H12.5081C13.6079 22.1538 14.5664 21.466 14.8872 20.4437L15.1202 19.7076L15.819 20.0682C16.789 20.5701 17.9689 20.3991 18.7441 19.6407L20.1685 18.2541C20.9476 17.4957 21.1232 16.3507 20.6077 15.4064L20.2373 14.7261L20.9934 14.4994C22.0435 14.1834 22.75 13.254 22.75 12.1833V10.2205C22.75 9.14981 22.0435 8.2167 20.9934 7.90443V7.90443ZM20.8406 12.1833C20.8406 12.4324 20.6764 12.6517 20.4282 12.7261L18.5685 13.2837C18.2974 13.3655 18.0759 13.5588 17.9689 13.8153C17.862 14.0718 17.8735 14.3618 18.0071 14.6072L18.9198 16.2838C19.0382 16.5031 19 16.7708 18.8167 16.9492L17.3923 18.3359C17.209 18.5143 16.9341 18.5515 16.7088 18.4362L14.9865 17.5515C14.7345 17.4213 14.4366 17.4102 14.1731 17.5143C13.9096 17.6221 13.7111 17.834 13.627 18.0979L13.0542 19.9084C12.9779 20.1463 12.7564 20.3099 12.4967 20.3099H10.4804C10.2245 20.3099 9.99923 20.15 9.92286 19.9084L9.35005 18.0979C9.26604 17.834 9.06746 17.6184 8.80397 17.5143C8.68559 17.466 8.56339 17.4437 8.43738 17.4437C8.28463 17.4437 8.13187 17.4808 7.99058 17.5515L6.26832 18.44C6.04302 18.5589 5.76808 18.518 5.58478 18.3396L4.16038 16.9529C3.97709 16.7745 3.9389 16.5068 4.05728 16.2875L4.96613 14.6109C5.09979 14.3655 5.11125 14.0756 5.00432 13.819C4.8974 13.5625 4.67592 13.3692 4.40479 13.2874L2.54505 12.7298C2.30065 12.6555 2.13264 12.4398 2.13264 12.187V10.2242C2.13264 9.9751 2.29684 9.75577 2.54505 9.68142L4.40479 9.12378C4.67592 9.042 4.8974 8.84869 5.00432 8.59217C5.11125 8.33566 5.09979 8.0457 4.96613 7.80034L4.05346 6.12372C3.93508 5.90439 3.97326 5.63673 4.15656 5.45828L5.58096 4.07164C5.76426 3.89691 6.03921 3.85602 6.26451 3.97126L7.98676 4.85604C8.23879 4.98615 8.53666 4.99731 8.80015 4.89322C9.06364 4.78541 9.26221 4.57351 9.34623 4.30956L9.91904 2.49912C9.99541 2.26119 10.2169 2.09762 10.4766 2.09762H12.4929C12.7487 2.09762 12.974 2.25748 13.0504 2.49912L13.6232 4.30956C13.7072 4.57351 13.9058 4.78912 14.1693 4.89322C14.4328 4.99731 14.7307 4.98615 14.9827 4.85604L16.7049 3.96755C16.9302 3.8523 17.2052 3.88948 17.3885 4.06792L18.8129 5.45457C18.9962 5.63301 19.0344 5.90067 18.916 6.12001L18.0071 7.79662C17.8735 8.04198 17.862 8.33195 17.9689 8.58846C18.0759 8.84497 18.2974 9.03828 18.5685 9.12007L20.4282 9.6777C20.6726 9.75205 20.8406 9.96767 20.8406 10.2205V12.1833V12.1833Z" fill="#53B3EE"/>
<path d="M11.4924 6.87463C9.04075 6.87463 7.04736 8.81519 7.04736 11.2019C7.04736 13.5885 9.04075 15.5291 11.4924 15.5291C13.944 15.5291 15.9374 13.5885 15.9374 11.2019C15.9374 8.81519 13.944 6.87463 11.4924 6.87463ZM11.4924 13.6703C10.0947 13.6703 8.95673 12.5625 8.95673 11.2019C8.95673 9.84123 10.0947 8.73341 11.4924 8.73341C12.89 8.73341 14.028 9.84123 14.028 11.2019C14.028 12.5625 12.89 13.6703 11.4924 13.6703Z" fill="#53B3EE"/>
</svg>
