<svg width="23" height="22" viewBox="0 0 23 22" fill="none" xmlns="http://www.w3.org/2000/svg">
<g clip-path="url(#clip0_199_882)">
<path d="M20.7411 7.65394L19.9856 7.4274L20.3557 6.74779C20.8708 5.80078 20.6953 4.65694 19.9169 3.90305L18.4937 2.51782C17.7154 1.76022 16.5402 1.58938 15.571 2.09074L14.8728 2.45097L14.6401 1.71565C14.3157 0.694368 13.3619 0.00732422 12.263 0.00732422H10.2484C9.14956 0.00732422 8.19187 0.694368 7.87137 1.71565L7.63863 2.45097L6.94039 2.09074C5.97125 1.58938 4.79226 1.76022 4.01772 2.51782L2.59454 3.90305C1.81617 4.66066 1.64066 5.80449 2.15575 6.74779L2.52586 7.4274L1.77039 7.65394C0.721126 7.96961 0.0152588 8.89805 0.0152588 9.96761V11.9285C0.0152588 12.998 0.721126 13.9302 1.77039 14.2421L2.52586 14.4687L2.15575 15.1483C1.64066 16.0953 1.81617 17.2391 2.59454 17.993L4.01772 19.3783C4.79608 20.1359 5.97125 20.3067 6.94039 19.8053L7.63863 19.4451L7.87137 20.1804C8.19569 21.2017 9.14956 21.8888 10.2484 21.8888H12.263C13.3619 21.8888 14.3196 21.2017 14.6401 20.1804L14.8728 19.4451L15.571 19.8053C16.5402 20.3067 17.7192 20.1359 18.4937 19.3783L19.9169 17.993C20.6953 17.2354 20.8708 16.0916 20.3557 15.1483L19.9856 14.4687L20.7411 14.2421C21.7903 13.9265 22.4962 12.998 22.4962 11.9285V9.96761C22.4962 8.89805 21.7903 7.9659 20.7411 7.65394Z" fill="#53B3EE"/>
<path d="M11.2481 6.62524C8.79851 6.62524 6.80682 8.56382 6.80682 10.9481C6.80682 13.3323 8.79851 15.2709 11.2481 15.2709C13.6976 15.2709 15.6893 13.3323 15.6893 10.9481C15.6893 8.56382 13.6976 6.62524 11.2481 6.62524ZM11.2481 13.414C9.85159 13.414 8.71457 12.3073 8.71457 10.9481C8.71457 9.58882 9.85159 8.48212 11.2481 8.48212C12.6445 8.48212 13.7816 9.58882 13.7816 10.9481C13.7816 12.3073 12.6445 13.414 11.2481 13.414Z" fill="white"/>
</g>
<defs>
<clipPath id="clip0_199_882">
<rect width="22.5" height="21.9" fill="white"/>
</clipPath>
</defs>
</svg>
